HIERARCHY
ROOT Hips
{
  OFFSET 5.84602e-005 68.8428 3.50346
  CHANNELS 6 Xposition Yposition Zposition Zrotation Xrotation Yrotation
  JOINT Spine
  {
    OFFSET 0 8.597 -4.6522
    CHANNELS 3 Zrotation Xrotation Yrotation
    JOINT Spine1
    {
      OFFSET 0 7.8454 0.4098
      CHANNELS 3 Zrotation Xrotation Yrotation
      JOINT Spine2
      {
        OFFSET 0 9.7078 -2.1609
        CHANNELS 3 Zrotation Xrotation Yrotation
        JOINT Neck
        {
          OFFSET 0 21.8761 -0.4549
          CHANNELS 3 Zrotation Xrotation Yrotation
          JOINT Head
          {
            OFFSET 0 12.3537 3.3602
            CHANNELS 3 Zrotation Xrotation Yrotation
            End Site
            {
              OFFSET 0.0001 18.9506 0.5657
            }
          }
        }
        JOINT LeftShoulder
        {
          OFFSET 2.2086 21.1115 7.2329
          CHANNELS 3 Zrotation Xrotation Yrotation
          JOINT LeftArm
          {
            OFFSET 13.1193 3.0282 -4.8998
            CHANNELS 3 Zrotation Xrotation Yrotation
            JOINT LeftForeArm
            {
              OFFSET 27.4081 -0.0973053 -0.2375
              CHANNELS 3 Zrotation Xrotation Yrotation
              JOINT LeftHand
              {
                OFFSET 22.8641 0.0662994 -0.1369
                CHANNELS 3 Zrotation Xrotation Yrotation
                JOINT LeftHandIndex1
                {
                  OFFSET 8.8614 0.775009 2.4612
                  CHANNELS 3 Zrotation Xrotation Yrotation
                  JOINT LeftHandIndex2
                  {
                    OFFSET 3.3146 -0.808304 0.5841
                    CHANNELS 3 Zrotation Xrotation Yrotation
                    JOINT LeftHandIndex3
                    {
                      OFFSET 2.2628 -0.552002 0.3989
                      CHANNELS 3 Zrotation Xrotation Yrotation
                      End Site
                      {
                        OFFSET 1.6102 -0.4807 0.2612
                      }
                    }
                  }
                }
                JOINT LeftHandMiddle1
                {
                  OFFSET 8.9937 0.895004 0.2143
                  CHANNELS 3 Zrotation Xrotation Yrotation
                  JOINT LeftHandMiddle2
                  {
                    OFFSET 4.0984 0.0113983 -0.0242
                    CHANNELS 3 Zrotation Xrotation Yrotation
                    JOINT LeftHandMiddle3
                    {
                      OFFSET 2.2716 0.00689697 -0.0138001
                      CHANNELS 3 Zrotation Xrotation Yrotation
                      End Site
                      {
                        OFFSET 2.0404 -0.1441 0.0027
                      }
                    }
                  }
                }
                JOINT LeftHandRing1
                {
                  OFFSET 8.5234 0.597198 -2.0164
                  CHANNELS 3 Zrotation Xrotation Yrotation
                  JOINT LeftHandRing2
                  {
                    OFFSET 3.7188 -0.188293 -0.2328
                    CHANNELS 3 Zrotation Xrotation Yrotation
                    JOINT LeftHandRing3
                    {
                      OFFSET 2.1191 -0.106598 -0.1332
                      CHANNELS 3 Zrotation Xrotation Yrotation
                      End Site
                      {
                        OFFSET 1.8737 -0.2304 -0.0886
                      }
                    }
                  }
                }
                JOINT LeftHandPinky1
                {
                  OFFSET 7.9094 -0.601089 -3.4825
                  CHANNELS 3 Zrotation Xrotation Yrotation
                  JOINT LeftHandPinky2
                  {
                    OFFSET 2.2874 -0.477005 -0.6314
                    CHANNELS 3 Zrotation Xrotation Yrotation
                    JOINT LeftHandPinky3
                    {
                      OFFSET 1.6774 -0.349396 -0.4633
                      CHANNELS 3 Zrotation Xrotation Yrotation
                      End Site
                      {
                        OFFSET 1.4888 -0.4091 -0.3416
                      }
                    }
                  }
                }
                JOINT LeftHandThumb1
                {
                  OFFSET 1.833 -1.3875 1.3896
                  CHANNELS 3 Zrotation Xrotation Yrotation
                  JOINT LeftHandThumb2
                  {
                    OFFSET 3.4129 -1.121 2.5732
                    CHANNELS 3 Zrotation Xrotation Yrotation
                    JOINT LeftHandThumb3
                    {
                      OFFSET 2.2474 -0.804199 1.6192
                      CHANNELS 3 Zrotation Xrotation Yrotation
                      End Site
                      {
                        OFFSET 1.6527 -0.5689 1.1317
                      }
                    }
                  }
                }
              }
            }
          }
        }
        JOINT RightShoulder
        {
          OFFSET -2.2086 21.1115 7.2329
          CHANNELS 3 Zrotation Xrotation Yrotation
          JOINT RightArm
          {
            OFFSET -13.1216 3.0287 -4.9007
            CHANNELS 3 Zrotation Xrotation Yrotation
            JOINT RightForeArm
            {
              OFFSET -27.4081 -0.0973053 -0.2375
              CHANNELS 3 Zrotation Xrotation Yrotation
              JOINT RightHand
              {
                OFFSET -22.8641 0.0664063 -0.1369
                CHANNELS 3 Zrotation Xrotation Yrotation
                JOINT RightHandIndex1
                {
                  OFFSET -8.8614 0.774994 2.4612
                  CHANNELS 3 Zrotation Xrotation Yrotation
                  JOINT RightHandIndex2
                  {
                    OFFSET -3.3146 -0.808304 0.5841
                    CHANNELS 3 Zrotation Xrotation Yrotation
                    JOINT RightHandIndex3
                    {
                      OFFSET -2.2628 -0.552002 0.3989
                      CHANNELS 3 Zrotation Xrotation Yrotation
                      End Site
                      {
                        OFFSET -1.6102 -0.4807 0.2612
                      }
                    }
                  }
                }
                JOINT RightHandMiddle1
                {
                  OFFSET -8.9937 0.894989 0.2143
                  CHANNELS 3 Zrotation Xrotation Yrotation
                  JOINT RightHandMiddle2
                  {
                    OFFSET -4.0984 0.0113983 -0.0242
                    CHANNELS 3 Zrotation Xrotation Yrotation
                    JOINT RightHandMiddle3
                    {
                      OFFSET -2.2716 0.00691223 -0.0138001
                      CHANNELS 3 Zrotation Xrotation Yrotation
                      End Site
                      {
                        OFFSET -2.0404 -0.1441 0.0027
                      }
                    }
                  }
                }
                JOINT RightHandRing1
                {
                  OFFSET -8.5234 0.597198 -2.0164
                  CHANNELS 3 Zrotation Xrotation Yrotation
                  JOINT RightHandRing2
                  {
                    OFFSET -3.7188 -0.188309 -0.2328
                    CHANNELS 3 Zrotation Xrotation Yrotation
                    JOINT RightHandRing3
                    {
                      OFFSET -2.1191 -0.106598 -0.1332
                      CHANNELS 3 Zrotation Xrotation Yrotation
                      End Site
                      {
                        OFFSET -1.8737 -0.2304 -0.0886
                      }
                    }
                  }
                }
                JOINT RightHandPinky1
                {
                  OFFSET -7.9094 -0.601105 -3.4825
                  CHANNELS 3 Zrotation Xrotation Yrotation
                  JOINT RightHandPinky2
                  {
                    OFFSET -2.2874 -0.477005 -0.6314
                    CHANNELS 3 Zrotation Xrotation Yrotation
                    JOINT RightHandPinky3
                    {
                      OFFSET -1.6774 -0.349396 -0.4633
                      CHANNELS 3 Zrotation Xrotation Yrotation
                      End Site
                      {
                        OFFSET -1.4888 -0.4091 -0.3416
                      }
                    }
                  }
                }
                JOINT RightHandThumb1
                {
                  OFFSET -1.833 -1.38751 1.3896
                  CHANNELS 3 Zrotation Xrotation Yrotation
                  JOINT RightHandThumb2
                  {
                    OFFSET -3.41299 -1.12099 2.5732
                    CHANNELS 3 Zrotation Xrotation Yrotation
                    JOINT RightHandThumb3
                    {
                      OFFSET -2.24741 -0.804108 1.6192
                      CHANNELS 3 Zrotation Xrotation Yrotation
                      End Site
                      {
                        OFFSET -1.6527 -0.5689 1.1317
                      }
                    }
                  }
                }
              }
            }
          }
        }
      }
    }
  }
  JOINT RightUpLeg
  {
    OFFSET -9.1966 3.8861 -0.7581
    CHANNELS 3 Zrotation Xrotation Yrotation
    JOINT RightLeg
    {
      OFFSET -0.7359 -41.0265 0
      CHANNELS 3 Zrotation Xrotation Yrotation
      JOINT RightFoot
      {
        OFFSET 0 -40.2855 0
        CHANNELS 3 Zrotation Xrotation Yrotation
        JOINT RightToeBase
        {
          OFFSET 0 -5.6122 11.7359
          CHANNELS 3 Zrotation Xrotation Yrotation
          End Site
          {
            OFFSET 0 0 7.8731
          }
        }
      }
    }
  }
  JOINT LeftUpLeg
  {
    OFFSET 9.1965 3.8864 -0.7581
    CHANNELS 3 Zrotation Xrotation Yrotation
    JOINT LeftLeg
    {
      OFFSET 0.7359 -41.0268 0
      CHANNELS 3 Zrotation Xrotation Yrotation
      JOINT LeftFoot
      {
        OFFSET 0 -40.2855 0
        CHANNELS 3 Zrotation Xrotation Yrotation
        JOINT LeftToeBase
        {
          OFFSET 0 -5.6122 11.7359
          CHANNELS 3 Zrotation Xrotation Yrotation
          End Site
          {
            OFFSET 0 0 7.8731
          }
        }
      }
    }
  }
}
MOTION
Frames:	6
Frame Time:	0.0333333
5.84602e-005 68.8428 3.50346 0 0 -0 0 0 -0 0 0 -0 0 0 -0 0 0 -0 0 0 -0 0 0 -0 0 0 -0 0 0 -0 0 0 -0 0 0 -0 0 0 -0 0 0 -0 0 0 -0 -0.0146107 -8.87603e-005 -2.63497e-007 2.99804e-018 -2.42657e-020 -1.42182e-022 0 0 -0 -0.0187562 -0.001176 5.858e-005 5.06224e-018 3.88251e-019 1.21329e-020 0 0 -0 -0.012269 -0.00324817 0.000675346 -1.74678e-018 3.88251e-019 -0 0 0 -0 0 0 -0 0 0 -0 0 0 -0 0 0 -0 0 0 -0 0 0 -0 0 0 -0 0 0 -0 0 0 -0 0 0 -0 0.0149955 -9.10982e-005 2.64101e-007 -9.69331e-018 1.21329e-020 -4.7394e-023 0 0 -0 0.0189956 -0.00119102 -5.96516e-005 -5.41541e-019 0 2.42657e-020 0 0 -0 0.0122698 -0.00324857 -0.000673756 -2.00796e-019 0 -1.94126e-019 0 0 -0 0 0 -0 0 0 -0 3.39842 1.33031 -0.0637918 -5.65207e-008 0.834868 -0.000436188 -3.39935 -2.16518 -0.0642563 -8.89002e-024 -1.18485e-023 -1.48106e-024 -3.39844 1.35642 0.0640283 -3.18788e-007 0.782166 -0.000588827 3.39931 -2.13858 0.0634662 1.1399e-023 0 -0 
-2.03204 5.47709 7.03079 -0 -72.0011 -0 -0.83611 12.6011 0.249349 -1.79801 25.1969 0.719839 -1.79801 25.1969 0.719838 -0.0576879 0.0333217 -0.0751618 -0.036694 0.0577187 -0.0506912 -24.8737 4.84051 -18.7053 -11.9902 2.62096 -17.2259 -7.73121 0.221847 -57.2356 -7.00034 1.9257e-006 -1.7709e-005 -7.72434e-032 2.78299e-015 1.59028e-015 -3.18055e-015 9.14409e-015 -0 -4.41391e-032 1.59028e-015 1.59028e-015 -7.72434e-032 2.78299e-015 1.59028e-015 -0.0146175 -9.39377e-005 4.13094e-006 0 0 -0 -7.72434e-032 2.78299e-015 1.59028e-015 -0.0187503 -0.0011776 6.15014e-005 1.50351e-006 1.00596e-006 2.59257e-006 -7.72434e-032 2.78299e-015 1.59028e-015 -0.0122537 -0.00324161 0.000668518 -3.18055e-015 5.56597e-015 1.59028e-015 -7.72434e-032 2.78299e-015 1.59028e-015 -3.18055e-015 9.14409e-015 -0 -4.41391e-032 1.59028e-015 1.59028e-015 16.707 1.54597 27.1836 9.18991 -6.23564 27.1725 7.51586 2.09991 65.5964 6.99683 -0.141904 -9.28727e-005 6.7474e-007 2.26529e-006 3.95369e-008 -5.56597e-015 -2.38542e-015 -0 6.7474e-007 2.26529e-006 3.95369e-008 6.7474e-007 2.26529e-006 3.95369e-008 0.0149941 -9.18289e-005 -2.37564e-006 6.74805e-007 2.2653e-006 3.92399e-008 6.7474e-007 2.26529e-006 3.95369e-008 0.0189955 -0.00119082 -5.46012e-005 6.74821e-007 2.26529e-006 3.91541e-008 6.7474e-007 2.26529e-006 3.95369e-008 0.0122312 -0.00323826 -0.000673309 6.74781e-007 2.26528e-006 3.92731e-008 6.7474e-007 2.26529e-006 3.95369e-008 -5.56597e-015 -2.38542e-015 -0 6.7474e-007 2.26529e-006 3.95369e-008 -20.3488 -42.6817 -17.3487 12.8912 79.588 -14.5341 -8.34851 11.1862 -1.50063 -7.2618e-007 -5.55329e-007 2.57145e-006 11.018 -13.2303 17.6475 -2.00128 7.97566 0.917614 9.09164 12.6879 0.66061 -5.54729e-008 -2.13555e-006 -3.06355e-007 
-2.03203 5.47709 7.03079 -0 -72.0011 -0 -0.83611 12.6011 0.249349 -1.79801 25.1969 0.719838 -1.79801 25.1969 0.719838 -0.193918 0.0575299 -0.127732 -0.0366934 0.0577237 -0.0506905 -24.8737 4.84051 -18.7052 -12.0134 2.5243 -17.3541 -7.7312 0.221843 -57.2356 -7.00033 -4.75657e-006 -1.37135e-005 3.18055e-015 8.34896e-015 -0 6.36111e-015 -1.19271e-015 -0 3.18055e-015 2.78299e-015 -1.59028e-015 3.18055e-015 8.34896e-015 -0 -0.0146123 -8.39755e-005 -5.58083e-006 0 1.47101e-014 -0 3.18055e-015 8.34896e-015 -0 -0.0187799 -0.00117501 5.62713e-005 3.18055e-015 -1.98785e-015 -1.59028e-015 3.18055e-015 8.34896e-015 -0 -0.0123035 -0.00325528 0.000680279 -6.36111e-015 0 -1.59028e-015 3.18055e-015 8.34896e-015 -0 6.36111e-015 -1.19271e-015 -0 3.18055e-015 2.78299e-015 -1.59028e-015 16.707 1.54598 27.1836 9.52055 -6.32519 27.096 7.51585 2.09991 65.5964 6.99684 -0.141895 -7.27472e-005 7.95139e-016 -3.57812e-015 3.18055e-015 7.95139e-016 -7.95139e-016 -0 7.95139e-016 -1.59028e-015 -0 7.95139e-016 -3.57812e-015 3.18055e-015 0.015 -9.26706e-005 -3.75909e-006 -1.59028e-015 2.78299e-015 6.36111e-015 7.95139e-016 -3.57812e-015 3.18055e-015 0.0190159 -0.00119313 -5.91693e-005 2.38542e-015 7.95139e-016 1.27222e-014 7.95139e-016 -3.57812e-015 3.18055e-015 0.0122532 -0.00324598 -0.000686446 -7.95139e-016 2.78299e-015 2.22639e-014 7.95139e-016 -3.57812e-015 3.18055e-015 7.95139e-016 -7.95139e-016 -0 7.95139e-016 -1.59028e-015 -0 -20.3488 -42.6817 -17.3487 12.8913 79.588 -14.5341 -8.34851 11.1862 -1.50061 -4.71792e-008 -3.76306e-008 1.73449e-006 11.0181 -13.2306 17.6475 -2.00128 7.97618 0.91763 9.09163 12.6876 0.660632 3.96781e-007 3.93077e-006 2.37388e-006 
-2.03204 5.47709 7.03079 -0 -72.0011 -0 -0.83611 12.6011 0.249349 -1.79801 25.1969 0.719839 -1.79801 25.1969 0.719838 -0.33019 0.0819837 -0.180257 -0.0366939 0.05772 -0.0506907 -24.8737 4.84051 -18.7053 -12.0367 2.42765 -17.4822 -7.7312 0.221853 -57.2356 -7.00033 4.46809e-006 -1.87985e-005 -1.0152e-030 9.14409e-015 6.36111e-015 1.25067e-006 -9.56434e-007 -5.8072e-007 3.18055e-015 -4.37326e-015 -1.59028e-015 -1.0152e-030 9.14409e-015 6.36111e-015 -0.0146173 -8.62191e-005 1.60974e-006 -1.98626e-031 -7.15625e-015 -1.59028e-015 -1.0152e-030 9.14409e-015 6.36111e-015 -0.018774 -0.00117511 5.24249e-005 6.36111e-015 3.18055e-015 1.59028e-015 -1.0152e-030 9.14409e-015 6.36111e-015 -0.0122762 -0.00325284 0.000683349 6.36111e-015 -1.39149e-014 1.59028e-015 -1.0152e-030 9.14409e-015 6.36111e-015 1.25067e-006 -9.56434e-007 -5.8072e-007 3.18055e-015 -4.37326e-015 -1.59028e-015 16.707 1.54598 27.1836 9.8515 -6.41527 27.02 7.51586 2.09991 65.5964 6.99684 -0.141902 -6.43055e-005 7.95139e-016 2.38542e-015 -0 6.27334e-007 1.48343e-006 2.44417e-007 -1.59028e-015 2.38542e-015 -3.18055e-015 7.95139e-016 2.38542e-015 -0 0.0150342 -9.12047e-005 -1.7695e-006 -7.95139e-016 -2.38542e-015 -6.36111e-015 7.95139e-016 2.38542e-015 -0 0.0190057 -0.00118957 -5.78015e-005 -5.79378e-007 -7.0447e-007 -4.48861e-007 7.95139e-016 2.38542e-015 -0 0.0122761 -0.00324896 -0.000671944 1.98626e-031 1.19271e-015 -9.54166e-015 7.95139e-016 2.38542e-015 -0 6.27334e-007 1.48343e-006 2.44417e-007 -1.59028e-015 2.38542e-015 -3.18055e-015 -20.3488 -42.6817 -17.3487 12.8912 79.5879 -14.5341 -8.34851 11.1862 -1.50063 4.1089e-007 7.11585e-008 -9.09277e-008 11.018 -13.2303 17.6475 -2.00128 7.97566 0.917609 9.09164 12.6879 0.660607 7.59746e-007 1.48997e-006 -1.84731e-007 
-2.03203 5.47709 7.03079 -0 -72.0011 -0 -0.83611 12.6011 0.249349 -1.79801 25.1969 0.719838 -1.79801 25.1969 0.719838 -0.466429 0.106502 -0.23274 -0.0366958 0.0577136 -0.0506908 -24.8737 4.84051 -18.7053 -12.0602 2.33101 -17.6105 -7.73119 0.221847 -57.2356 -7.00033 9.47941e-007 -1.56595e-006 6.36111e-015 5.56597e-015 1.59028e-015 1.25157e-006 -9.55161e-007 -5.7994e-007 -6.36111e-015 -3.18055e-015 -1.59028e-015 6.36111e-015 5.56597e-015 1.59028e-015 -0.0145742 -8.20925e-005 -3.48097e-006 -6.36111e-015 -7.15625e-015 -4.77083e-015 6.36111e-015 5.56597e-015 1.59028e-015 -0.0187415 -0.00118031 5.79521e-005 -3.18055e-015 3.97569e-016 -4.77083e-015 6.36111e-015 5.56597e-015 1.59028e-015 -0.012275 -0.00324964 0.000676507 3.18055e-015 7.95139e-016 -0 6.36111e-015 5.56597e-015 1.59028e-015 1.25157e-006 -9.55161e-007 -5.7994e-007 -6.36111e-015 -3.18055e-015 -1.59028e-015 16.707 1.54598 27.1836 10.1828 -6.5059 26.9444 7.51586 2.09991 65.5964 6.99683 -0.141899 -6.72469e-005 7.95139e-016 3.18055e-015 -3.18055e-015 3.97569e-015 3.18055e-015 6.36111e-015 2.38542e-015 3.18055e-015 3.18055e-015 7.95139e-016 3.18055e-015 -3.18055e-015 0.014968 -9.07212e-005 -4.66163e-006 1.59028e-015 -4.77083e-015 -3.18055e-015 7.95139e-016 3.18055e-015 -3.18055e-015 0.0189842 -0.00119083 -5.49484e-005 3.97569e-015 3.57812e-015 6.36111e-015 7.95139e-016 3.18055e-015 -3.18055e-015 0.0121833 -0.00322466 -0.000675839 -3.18055e-015 -3.97569e-016 -1.59028e-014 7.95139e-016 3.18055e-015 -3.18055e-015 3.97569e-015 3.18055e-015 6.36111e-015 2.38542e-015 3.18055e-015 3.18055e-015 -20.3488 -42.6817 -17.3487 12.8912 79.5879 -14.5341 -8.34852 11.1862 -1.50062 -2.99803e-007 -1.10841e-007 3.51444e-006 11.0181 -13.2306 17.6475 -2.00128 7.97618 0.91763 9.09163 12.6876 0.660632 3.96781e-007 3.93077e-006 2.37388e-006 
-2.03204 5.47709 7.03079 -0 -72.0011 -0 -0.836109 12.6011 0.249349 -1.79801 25.1969 0.719839 -1.79801 25.1969 0.719838 -0.602745 0.131535 -0.285166 -0.0366958 0.057719 -0.0506913 -24.8737 4.84051 -18.7053 -12.084 2.2344 -17.7389 -7.73119 0.221832 -57.2356 -7.00033 -5.30709e-006 -1.04956e-005 4.41273e-006 5.97189e-007 -1.7961e-006 1.25248e-006 -9.53885e-007 -5.79158e-007 1.25248e-006 -9.53885e-007 -5.79158e-007 4.41273e-006 5.97189e-007 -1.7961e-006 -0.0146041 -8.59737e-005 -2.37411e-006 1.25252e-006 -9.53811e-007 -5.7928e-007 4.41273e-006 5.97189e-007 -1.7961e-006 -0.018762 -0.00117791 5.47843e-005 1.25253e-006 -9.53787e-007 -5.79327e-007 4.41273e-006 5.97189e-007 -1.7961e-006 -0.0122667 -0.00324854 0.000687325 1.25249e-006 -9.53821e-007 -5.79297e-007 4.41273e-006 5.97189e-007 -1.7961e-006 1.25248e-006 -9.53885e-007 -5.79158e-007 1.25248e-006 -9.53885e-007 -5.79158e-007 16.707 1.54598 27.1836 10.5143 -6.59704 26.8692 7.51587 2.09991 65.5964 6.99683 -0.141904 -8.76241e-005 -5.09988e-007 -1.69745e-007 -2.72297e-006 1.46528e-006 7.9458e-007 -2.41175e-007 -7.94579e-007 1.46528e-006 2.81353e-007 -5.09988e-007 -1.69745e-007 -2.72297e-006 0.014987 -8.87143e-005 6.80634e-006 -7.94548e-007 1.46531e-006 2.81162e-007 -5.09988e-007 -1.69745e-007 -2.72297e-006 0.0189615 -0.00118769 -6.3716e-005 -7.94538e-007 1.46532e-006 2.81118e-007 -5.09988e-007 -1.69745e-007 -2.72297e-006 0.0123303 -0.00325954 -0.000676995 -7.94554e-007 1.4653e-006 2.81216e-007 -5.09988e-007 -1.69745e-007 -2.72297e-006 1.46528e-006 7.9458e-007 -2.41175e-007 -7.94579e-007 1.46528e-006 2.81353e-007 -20.3488 -42.6817 -17.3487 12.8912 79.5879 -14.5341 -8.34851 11.1862 -1.50062 1.58266e-007 -2.05148e-009 1.68902e-006 11.0181 -13.2306 17.6475 -2.00128 7.97617 0.917633 9.09163 12.6877 0.660634 2.85306e-007 1.30443e-007 1.80171e-006 
